<svg aria-hidden="true" style="width:0;height:0;position:absolute;overflow:hidden" xmlns="http://www.w3.org/2000/svg"><defs><symbol id="icon-close" viewBox="0 0 32 32"><path stroke-width="2.133" d="m8.533 8.533 14.933 14.933M8.533 23.467 23.466 8.534"/></symbol><symbol id="icon-film" viewBox="0 0 32 32"><path fill="none" stroke="#fff" style="stroke:var(--color1,#fff)" stroke-linejoin="round" stroke-linecap="round" stroke-width="2.667" d="M26.427 3.606H5.574c-1.605 0-2.907 1.239-2.907 2.768V26.23c0 1.529 1.301 2.768 2.907 2.768h20.853c1.605 0 2.907-1.239 2.907-2.768V6.374c0-1.529-1.301-2.768-2.907-2.768zM9.333 3.606v25.391M22.667 3.606v25.391M2.667 16.301h26.667M2.667 9.954h6.667M2.667 22.649h6.667M22.667 22.649h6.667M22.667 9.954h6.667"/></symbol><symbol id="icon-Heart" viewBox="0 0 32 32"><path fill="#ff6b08" style="fill:var(--color2,#ff6b08)" d="m16 30.583-2.24-2.24C5.44 20.983 0 16.023 0 9.943c0-4.96 3.84-8.8 8.8-8.8 2.72 0 5.44 1.28 7.2 3.36 1.76-2.08 4.48-3.36 7.2-3.36 4.96 0 8.8 3.84 8.8 8.8 0 6.08-5.44 11.04-13.76 18.4L16 30.583z"/></symbol><symbol id="icon-search-2" viewBox="0 0 32 32"><path fill="none" stroke="#fff" style="stroke:var(--color1,#fff)" stroke-linejoin="round" stroke-linecap="round" stroke-width="2.667" d="M14.667 25.333c5.891 0 10.667-4.776 10.667-10.667S20.558 3.999 14.667 3.999 4 8.775 4 14.666s4.776 10.667 10.667 10.667zM28 28.001l-5.8-5.8"/></symbol><symbol id="icon-heart" viewBox="0 0 34 32"><path fill="#ff6b08" style="fill:var(--color2,#ff6b08)" d="m17.231 31.705-2.412-2.412C5.859 21.367.001 16.025.001 9.478.001 4.136 4.136.001 9.478.001c2.929 0 5.858 1.378 7.754 3.618 1.895-2.24 4.825-3.618 7.754-3.618 5.342 0 9.477 4.135 9.477 9.477 0 6.548-5.858 11.889-14.818 19.815l-2.412 2.412z"/></symbol><symbol id="icon-logo" viewBox="0 0 32 32"><path fill="none" stroke="#fff" style="stroke:var(--color1,#fff)" stroke-linejoin="round" stroke-linecap="round" stroke-width="2.667" d="M26.427 2.667H5.574a2.907 2.907 0 0 0-2.907 2.907v20.853a2.907 2.907 0 0 0 2.907 2.907h20.853a2.907 2.907 0 0 0 2.907-2.907V5.574a2.907 2.907 0 0 0-2.907-2.907zM9.333 2.667v26.667M22.667 2.667v26.667M2.667 16h26.667M2.667 9.333h6.667M2.667 22.667h6.667M22.667 22.667h6.667M22.667 9.333h6.667"/></symbol><symbol id="icon-input-search" viewBox="0 0 32 32"><path fill="none" stroke="#fff" stroke-linecap="round" stroke-linejoin="round" stroke-width="2.667" d="M14.667 25.333c5.891 0 10.667-4.776 10.667-10.667S20.558 3.999 14.667 3.999 4 8.775 4 14.666s4.776 10.667 10.667 10.667zM28 28.001l-5.8-5.8"/><symbol id="icon-Heart" viewBox="0 0 34 32"><path d="m17.231 31.705-2.412-2.412C5.859 21.367.001 16.025.001 9.478.001 4.136 4.136.001 9.478.001c2.929 0 5.858 1.378 7.754 3.618 1.895-2.24 4.825-3.618 7.754-3.618 5.342 0 9.477 4.135 9.477 9.477 0 6.548-5.858 11.889-14.818 19.815l-2.412 2.412z"/></symbol><symbol id="icon-arrow-right" viewBox="0 0 32 32"><path d="M15.494 5.394c-.132.068-1.99 1.88-4.88 4.764-2.568 2.56-4.748 4.708-4.848 4.776-.234.16-.498.726-.498 1.066 0 .32.266.91.47 1.046.084.056 2.266 2.204 4.848 4.776 3.312 3.298 4.764 4.708 4.93 4.792.47.234.956.116 1.418-.346s.582-.948.346-1.418c-.082-.166-1.202-1.324-3.75-3.876l-3.634-3.638 15.944-.03.214-.114c.446-.238.584-.52.584-1.192 0-.576-.106-.86-.4-1.068-.386-.274-.084-.266-8.498-.266H9.896l3.632-3.64c2.548-2.552 3.67-3.71 3.752-3.876.236-.47.116-.956-.346-1.418-.452-.454-.978-.576-1.44-.338z"/></symbol><symbol id="icon-arrow-left" viewBox="0 0 32 32"><path d="M15.494 5.394c-.132.068-1.99 1.88-4.88 4.764-2.568 2.56-4.748 4.708-4.848 4.776-.234.16-.498.726-.498 1.066 0 .32.266.91.47 1.046.084.056 2.266 2.204 4.848 4.776 3.312 3.298 4.764 4.708 4.93 4.792.47.234.956.116 1.418-.346s.582-.948.346-1.418c-.082-.166-1.202-1.324-3.75-3.876l-3.634-3.638 15.944-.03.214-.114c.446-.238.584-.52.584-1.192 0-.576-.106-.86-.4-1.068-.386-.274-.084-.266-8.498-.266H9.896l3.632-3.64c2.548-2.552 3.67-3.71 3.752-3.876.236-.47.116-.956-.346-1.418-.452-.454-.978-.576-1.44-.338z"/></symbol></symbol></defs></svg>